<svg xmlns="http://www.w3.org/2000/svg" width="28px" height="28px" viewBox="0 0 28 28" aria-hidden="true">
<path stroke="none" fill-rule="evenodd" fill="#005EB8" d="M 14 28 C 21.730469 28 28 21.730469 28 14 C 28 6.269531 21.730469 0 14 0 C 6.269531 0 0 6.269531 0 14 C 0 21.730469 6.269531 28 14 28 Z M 12.203125 10.796875 C 12.203125 9.984375 12.480469 9.488281 12.785156 9.195312 C 13.113281 8.882812 13.574219 8.707031 14.058594 8.703125 C 14.542969 8.703125 14.984375 8.871094 15.292969 9.171875 C 15.578125 9.449219 15.851562 9.925781 15.84375 10.75 C 15.808594 11.339844 15.613281 11.675781 15.460938 11.867188 C 15.390625 11.953125 15.308594 12.035156 15.21875 12.109375 C 15.183594 12.136719 15.144531 12.164062 15.109375 12.191406 L 15.101562 12.199219 L 15.03125 12.25 L 15.027344 12.25 C 15.019531 12.261719 14.992188 12.28125 14.957031 12.308594 L 14.941406 12.316406 L 14.894531 12.351562 C 14.804688 12.414062 14.671875 12.507812 14.523438 12.625 C 14.128906 12.929688 13.773438 13.28125 13.464844 13.667969 C 12.894531 14.386719 12.476562 15.488281 12.476562 16.566406 L 12.476562 18.246094 L 15.507812 18.246094 L 15.507812 16.566406 C 15.507812 16.402344 15.546875 16.199219 15.617188 15.992188 C 15.691406 15.78125 15.785156 15.625 15.847656 15.546875 C 16.011719 15.335938 16.207031 15.15625 16.390625 15.015625 C 16.46875 14.957031 16.546875 14.898438 16.628906 14.839844 L 16.65625 14.820312 L 16.742188 14.761719 C 16.765625 14.742188 16.792969 14.726562 16.816406 14.703125 L 16.820312 14.703125 C 16.828125 14.695312 16.855469 14.675781 16.886719 14.648438 L 16.902344 14.640625 C 16.953125 14.601562 17.035156 14.542969 17.132812 14.460938 C 17.390625 14.253906 17.625 14.019531 17.832031 13.761719 C 18.347656 13.113281 18.8125 12.171875 18.875 10.871094 L 18.875 10.820312 C 18.898438 9.234375 18.355469 7.910156 17.398438 6.988281 C 16.464844 6.085938 15.234375 5.664062 14.042969 5.671875 C 12.847656 5.675781 11.625 6.109375 10.691406 7.003906 C 9.738281 7.914062 9.171875 9.222656 9.171875 10.800781 L 12.203125 10.800781 Z M 14.976562 12.292969 L 14.980469 12.292969 C 14.980469 12.292969 14.980469 12.292969 14.976562 12.292969 Z M 16.851562 14.679688 L 16.859375 14.671875 Z M 14.117188 22.492188 C 14.667969 22.507812 15.179688 22.21875 15.460938 21.746094 C 15.738281 21.269531 15.738281 20.683594 15.460938 20.207031 C 15.179688 19.734375 14.667969 19.445312 14.117188 19.460938 C 13.292969 19.480469 12.632812 20.152344 12.632812 20.976562 C 12.632812 21.800781 13.292969 22.472656 14.117188 22.492188 Z M 14.117188 22.492188 "/>
</svg>
