<svg width="19" height="19" viewBox="0 0 19 19" fill="none" xmlns="http://www.w3.org/2000/svg">
<path fill-rule="evenodd" clip-rule="evenodd" d="M9.5 19C14.7467 19 19 14.7467 19 9.5C19 4.25329 14.7467 0 9.5 0C4.25329 0 0 4.25329 0 9.5C0 14.7467 4.25329 19 9.5 19ZM8.28081 7.32739C8.28081 6.77361 8.46825 6.43906 8.67683 6.23978C8.89902 6.02752 9.21001 5.90747 9.53872 5.90586C9.8672 5.90426 10.1677 6.02073 10.3777 6.2235C10.572 6.4111 10.7553 6.73634 10.7511 7.2946C10.7282 7.69481 10.5949 7.92248 10.4916 8.05171C10.4346 8.12287 10.3768 8.17607 10.3275 8.21604C10.3024 8.23647 10.2793 8.25362 10.2522 8.27353L10.2474 8.27704C10.2358 8.28549 10.2163 8.29981 10.1996 8.31249L10.1979 8.31372C10.1911 8.31886 10.1727 8.33279 10.1485 8.35298L10.1398 8.359L10.1062 8.38242C10.0457 8.42471 9.95683 8.4876 9.85432 8.5677C9.65204 8.72575 9.38264 8.96124 9.13558 9.27509C8.75128 9.76328 8.46553 10.5089 8.46553 11.2417V12.3825L10.5239 12.3825V11.2417C10.5239 11.1299 10.5481 10.9917 10.5978 10.8506C10.6482 10.7075 10.7104 10.6022 10.7529 10.5483C10.864 10.4072 10.9981 10.2861 11.1216 10.1896C11.182 10.1425 11.2366 10.1036 11.2846 10.0701L11.3025 10.0576C11.3208 10.0449 11.3433 10.0292 11.3598 10.0175C11.3723 10.0086 11.3916 9.9947 11.4124 9.97872L11.4128 9.97834L11.4129 9.97832L11.4129 9.97832L11.4129 9.97828C11.4204 9.97253 11.4374 9.95945 11.4594 9.94072L11.4691 9.93363C11.5032 9.90859 11.5593 9.86731 11.6249 9.81399C11.7574 9.70647 11.9282 9.55093 12.0989 9.3375C12.4494 8.89939 12.765 8.25918 12.8079 7.37742L12.8088 7.35988L12.809 7.34232C12.8246 6.26661 12.4557 5.36867 11.8074 4.74276C11.1728 4.13002 10.3382 3.8436 9.52867 3.84756C8.71934 3.85151 7.8893 4.14546 7.25497 4.75148C6.60704 5.37049 6.22247 6.25851 6.22247 7.32739H8.28081ZM10.1659 8.34078L10.1638 8.34222C10.1788 8.33076 10.1824 8.32898 10.1659 8.34078ZM11.4339 9.95987C11.4338 9.95995 11.4356 9.9585 11.4399 9.95528L11.4339 9.95987ZM9.57914 15.2633C10.1475 15.2633 10.6083 14.8026 10.6083 14.2342C10.6083 13.6658 10.1475 13.205 9.57914 13.205C9.01075 13.205 8.54997 13.6658 8.54997 14.2342C8.54997 14.8026 9.01075 15.2633 9.57914 15.2633Z" fill="#005EB8"/>
</svg>